<mxfile host="app.diagrams.net" modified="2024-06-26T12:38:35.006Z" agent="Mozilla/5.0 (Macintosh; Intel Mac OS X 10_15_7) AppleWebKit/537.36 (KHTML, like Gecko) Chrome/125.0.0.0 Safari/537.36" version="24.4.0" etag="VWD793odxrz6Kyt-R0sd" type="github">
  <diagram name="Page-1" id="TtRjhLOCEkZcMhHGB7Tb">
    <mxGraphModel>
      <root>
        <mxCell id="0" />
        <mxCell id="1" parent="0" />
      </root>
    </mxGraphModel>
  </diagram>
</mxfile>
